<?xml version="1.0" encoding="utf-8"?>
<!-- Generator: Adobe Illustrator 27.0.0, SVG Export Plug-In . SVG Version: 6.00 Build 0)  -->
<svg version="1.1" id="Lager_1" xmlns="http://www.w3.org/2000/svg" xmlns:xlink="http://www.w3.org/1999/xlink" x="0px" y="0px"
	 viewBox="0 0 605 605" style="enable-background:new 0 0 605 605;" xml:space="preserve">
<style type="text/css">
	.st0{fill:#EB5E1C;}
</style>
<g>
	<path class="st0" d="M556,605c-12.5,0-25.1-4.8-34.6-14.4l-507-507c-19.1-19.1-19.1-50.2,0-69.3c19.1-19.1,50.2-19.1,69.3,0
		l507,507c19.1,19.1,19.1,50.2,0,69.3C581.1,600.2,568.5,605,556,605z"/>
</g>
<g>
	<path class="st0" d="M49,605c-12.5,0-25.1-4.8-34.6-14.4c-19.1-19.1-19.1-50.2,0-69.3l507-507c19.1-19.1,50.2-19.1,69.3,0
		c19.1,19.1,19.1,50.2,0,69.3l-507,507C74.1,600.2,61.5,605,49,605z"/>
</g>
</svg>
