<?xml version="1.0" encoding="utf-8"?>
<!-- Generator: Adobe Illustrator 27.0.0, SVG Export Plug-In . SVG Version: 6.00 Build 0)  -->
<svg version="1.1" id="Lager_1" xmlns="http://www.w3.org/2000/svg" xmlns:xlink="http://www.w3.org/1999/xlink" x="0px" y="0px"
	 viewBox="0 0 126.6 78.8" style="enable-background:new 0 0 126.6 78.8;" xml:space="preserve">
<style type="text/css">
	.st0{fill:#EA5F1C;}
</style>
<g>
	<path class="st0" d="M10.2,77.9c7.8-5.8,16.7-10.6,19.9-21.3c-2.6-0.3-4.7-0.4-6.9-0.8C9.4,53.3,1,44.6,0.1,31.9
		c-1-12.9,7.6-25.7,20.1-30C39.6-4.9,59,8.5,60.6,29.7c1.9,25.8-13.5,43.9-40.9,48c-3,0.5-6,0.7-9,1.1
		C10.5,78.5,10.3,78.2,10.2,77.9z"/>
	<path class="st0" d="M95.8,56.6c-2.9-0.4-5.4-0.6-7.9-1.1c-10-2.2-17.8-7.2-20.8-17.5C64,27.4,66.6,17.9,73.9,9.8
		c8.4-9.3,21.3-12.3,32.8-7.7c12.9,5.1,19,15.3,19.7,28.8c1.4,23.8-11.9,40.4-36.9,46c-4.4,1-9,1.4-13.7,1.3c3.9-3,7.9-5.8,11.7-9
		C91.4,66,94.5,62.1,95.8,56.6z"/>
</g>
</svg>
