<?xml version="1.0" encoding="UTF-8"?>
<svg id="Lager_2" data-name="Lager 2" xmlns="http://www.w3.org/2000/svg" viewBox="0 0 117.86 105.35">
  <defs>
    <style>
      .cls-1 {
        fill: #eb5e1c;
      }
    </style>
  </defs>
  <g id="Lager_1-2" data-name="Lager 1">
    <g>
      <g>
        <path class="cls-1" d="M14.94,31.41c0,1.72-.22,3.19-.65,4.41-.43,1.22-1.02,2.21-1.76,2.98-.74,.77-1.6,1.33-2.58,1.69s-2.01,.53-3.1,.53-2.06-.14-2.91-.41c-.85-.27-1.57-.66-2.16-1.17-.59-.51-1.03-1.12-1.33-1.84-.3-.72-.45-1.54-.45-2.44,0-.35,.03-.7,.09-1.04s.13-.65,.21-.94c.08-.29,.17-.54,.26-.77,.1-.23,.18-.4,.25-.52,.34-.07,.77-.14,1.3-.2s1.19-.09,1.98-.09c.59,0,1.18,.05,1.77,.15s1.19,.23,1.77,.37c.07,.03,.16,.05,.26,.05,.1,0,.18,.01,.24,.01,.25,0,.41-.08,.47-.25,.07-.17,.1-.33,.1-.49-.19-.06-.44-.14-.76-.23-.32-.1-.68-.18-1.08-.25-.4-.07-.83-.14-1.28-.2-.45-.06-.9-.09-1.35-.09-.29-.53-.52-1.15-.68-1.85-.16-.7-.24-1.54-.24-2.51V11.7c.29-.19,.59-.34,.88-.46,.29-.12,.61-.26,.95-.44-.28-.15-.57-.35-.86-.62-.29-.26-.56-.58-.8-.96s-.44-.8-.6-1.29-.23-1.03-.23-1.63c0-.94,.17-1.8,.5-2.57,.33-.77,.78-1.43,1.35-1.98,.57-.55,1.24-.98,2-1.29s1.59-.46,2.47-.46,1.72,.16,2.48,.48c.76,.32,1.41,.76,1.97,1.32s.99,1.22,1.31,1.99c.32,.77,.47,1.6,.47,2.5,0,.76-.13,1.47-.39,2.13-.26,.65-.6,1.24-1.02,1.75s-.92,.94-1.5,1.29c-.57,.34-1.17,.58-1.78,.72,0,.22,.05,.42,.14,.58,.1,.17,.26,.25,.5,.25,.73,0,1.5-.29,2.29-.88,.04,.03,.12,.08,.24,.15,.12,.07,.25,.17,.4,.28s.29,.23,.44,.35c.15,.13,.28,.24,.4,.34V31.41Z"/>
        <path class="cls-1" d="M30.6,32.01c-.18,.15-.39,.3-.63,.45-.24,.15-.53,.29-.87,.41-.34,.12-.73,.22-1.19,.3-.46,.08-.98,.12-1.59,.12-.66,0-1.34-.06-2.05-.18-.7-.12-1.39-.32-2.06-.61s-1.3-.67-1.91-1.16c-.6-.49-1.13-1.09-1.58-1.82-.45-.73-.8-1.59-1.07-2.58s-.4-2.15-.4-3.47v-5.53c-.31-.54-.57-1.17-.79-1.88s-.33-1.52-.33-2.43c0-.4,.03-.81,.08-1.23,.05-.42,.13-.85,.23-1.27,.1-.42,.23-.83,.4-1.22,.16-.4,.36-.76,.6-1.1h4.85c.85,0,1.64,.1,2.36,.3s1.34,.51,1.85,.94c.51,.43,.91,.97,1.2,1.62,.29,.65,.43,1.44,.43,2.35v7.14c0,.82,.08,1.38,.23,1.69,.15,.3,.35,.45,.58,.45,.15,0,.26-.02,.34-.07,.08-.04,.16-.09,.23-.15-.07-.25-.13-.55-.17-.9-.04-.35-.06-.81-.06-1.37V9.91c.28-.16,.59-.33,.94-.5,.34-.17,.74-.32,1.2-.45,.46-.13,.97-.24,1.53-.33,.56-.09,1.22-.13,1.95-.13,1.28,0,2.38,.17,3.3,.52,.92,.35,1.62,.77,2.09,1.29v11.48c0,1.01,.11,1.88,.33,2.61s.64,1.28,1.26,1.66c.01,.12,.02,.26,.02,.43v.38c0,1.12-.15,2.08-.45,2.89-.3,.81-.72,1.47-1.24,1.99-.53,.52-1.16,.91-1.88,1.16s-1.52,.37-2.37,.37c-1.09,0-2.1-.25-3.03-.75s-1.63-1.26-2.1-2.27c-.5,0-.75,.24-.75,.73,0,.16,.04,.33,.13,.51,.09,.18,.21,.34,.37,.51Z"/>
        <path class="cls-1" d="M43.59,2.53c.32-.16,.71-.32,1.16-.47s.96-.29,1.53-.4,1.18-.17,1.83-.17c1.06,0,1.97,.12,2.72,.35,.76,.23,1.38,.56,1.86,.98s.84,.92,1.07,1.51c.23,.59,.34,1.24,.34,1.96v15.49c0,1.01,.11,1.88,.33,2.61s.64,1.28,1.26,1.66c.02,.12,.02,.26,.02,.43v.38c0,2.13-.54,3.73-1.62,4.8-1.08,1.07-2.58,1.61-4.51,1.61-.87,0-1.7-.12-2.51-.37-.81-.25-1.52-.67-2.14-1.26-.62-.59-1.11-1.36-1.49-2.31s-.56-2.14-.56-3.55V2.91c.15-.09,.38-.21,.7-.37Z"/>
        <path class="cls-1" d="M56.79,11.7c.29-.19,.59-.34,.88-.46,.29-.12,.61-.26,.95-.44-.28-.15-.57-.35-.86-.62-.29-.26-.56-.58-.8-.96s-.44-.8-.59-1.29-.23-1.03-.23-1.63c0-.94,.17-1.8,.5-2.57,.33-.77,.78-1.43,1.35-1.98s1.24-.98,2-1.29c.76-.31,1.59-.46,2.47-.46s1.72,.16,2.48,.48c.76,.32,1.41,.76,1.97,1.32s.99,1.22,1.31,1.99c.32,.77,.47,1.6,.47,2.5,0,.76-.13,1.47-.39,2.13s-.6,1.24-1.02,1.75-.92,.94-1.5,1.29c-.57,.34-1.17,.58-1.79,.72,0,.22,.05,.42,.14,.58s.26,.25,.5,.25c.73,0,1.5-.29,2.29-.88,.04,.03,.12,.08,.22,.15,.1,.07,.21,.16,.33,.26,.12,.1,.23,.2,.33,.3,.1,.1,.17,.17,.2,.21v8.72c0,1.01,.11,1.88,.33,2.61s.64,1.28,1.26,1.66c.01,.12,.02,.26,.02,.43v.38c0,1.12-.15,2.08-.46,2.89-.31,.81-.74,1.47-1.3,1.99-.56,.52-1.22,.91-1.99,1.16-.77,.25-1.61,.37-2.52,.37-.7,0-1.44-.12-2.21-.35s-1.48-.63-2.11-1.19c-.64-.56-1.17-1.3-1.59-2.24s-.63-2.1-.63-3.49V11.7Z"/>
        <path class="cls-1" d="M92.85,21.98c0,1.01,.11,1.85,.33,2.51s.64,1.18,1.26,1.56c.01,.12,.02,.26,.02,.43v.38c0,1.12-.18,2.08-.53,2.89-.35,.81-.81,1.47-1.38,1.99-.57,.52-1.21,.91-1.93,1.16-.72,.25-1.45,.37-2.2,.37-.53,0-1.05-.06-1.55-.19-.51-.13-.98-.31-1.43-.56s-.85-.57-1.21-.96c-.36-.39-.64-.85-.85-1.38-.25,0-.44,.07-.56,.2s-.19,.31-.19,.53c0,.21,.07,.43,.2,.66,.13,.23,.32,.48,.57,.73-.47,.32-1.1,.56-1.9,.73-.79,.16-1.6,.24-2.42,.24-1.34,0-2.55-.18-3.65-.55-1.09-.37-2.03-.91-2.82-1.63-.78-.72-1.4-1.6-1.83-2.63-.43-1.03-.65-2.23-.65-3.58s.23-2.6,.69-3.62,1.09-1.86,1.88-2.53,1.72-1.16,2.76-1.49c1.05-.32,2.16-.48,3.34-.48,.53,0,1,.02,1.41,.05,.41,.04,.76,.08,1.06,.12,.34,.06,.62,.12,.86,.18,.04-.15,.07-.27,.07-.37,0-.19-.1-.35-.3-.49-.2-.13-.46-.23-.78-.3-.32-.07-.7-.11-1.12-.14-.43-.03-.86-.04-1.3-.04-1,0-2,.11-3,.33s-1.9,.56-2.69,1.01c-.32-.54-.58-1.23-.78-2.07s-.3-1.69-.3-2.56c0-.41,.02-.83,.08-1.24,.05-.42,.16-.79,.32-1.11,.38-.18,.87-.37,1.47-.58,.59-.21,1.29-.41,2.07-.59,.79-.18,1.65-.34,2.6-.47s1.96-.2,3.05-.2c1.9,0,3.55,.21,4.97,.64,1.42,.43,2.6,1.04,3.54,1.84,.94,.8,1.64,1.79,2.11,2.95,.47,1.17,.71,2.49,.71,3.95v4.32Zm-11.43,1.08c-.34,0-.58,.09-.72,.25-.14,.17-.21,.36-.21,.58,0,.29,.11,.5,.32,.62,.21,.12,.47,.18,.76,.18,.47,0,.83-.12,1.08-.35,.25-.24,.37-.66,.37-1.28h-1.61Z"/>
        <path class="cls-1" d="M108.4,15.53c-.23,0-.46,0-.68,.01s-.41,.04-.58,.09c-.17,.05-.31,.13-.41,.23-.1,.1-.15,.25-.15,.44v.12c0,.05,0,.09,.02,.12,.25-.02,.46-.02,.64-.02h.53c.73,0,1.49,.05,2.27,.16s1.53,.29,2.26,.54,1.41,.58,2.06,.99c.65,.41,1.21,.91,1.69,1.5,.48,.59,.85,1.28,1.13,2.07,.28,.79,.42,1.7,.42,2.71,0,1.53-.28,2.86-.83,4-.55,1.14-1.33,2.08-2.35,2.83-1.01,.75-2.23,1.31-3.66,1.69-1.42,.37-3.01,.56-4.76,.56-1.62,0-3.1-.14-4.44-.42s-2.49-.7-3.45-1.26-1.7-1.26-2.23-2.1-.79-1.84-.79-2.99c0-.42,.05-.83,.15-1.22,.1-.39,.23-.75,.4-1.07,.16-.32,.34-.61,.55-.85s.41-.43,.62-.56c.35,.29,.81,.59,1.38,.89,.57,.3,1.21,.57,1.94,.8s1.52,.43,2.37,.57c.85,.15,1.76,.22,2.71,.22,.44,0,.72-.06,.85-.18,.13-.12,.19-.28,.19-.48,0-.12-.02-.23-.07-.35-.16,.01-.29,.02-.37,.02h-.24c-1.44,0-2.8-.15-4.09-.44s-2.41-.76-3.38-1.4c-.97-.64-1.74-1.45-2.31-2.43-.57-.98-.86-2.17-.86-3.57,0-1.16,.23-2.27,.7-3.32,.47-1.05,1.18-1.97,2.14-2.76,.95-.79,2.15-1.42,3.59-1.9,1.44-.47,3.13-.7,5.07-.7,.95,0,1.87,.06,2.75,.17,.88,.11,1.71,.26,2.48,.45,.77,.19,1.48,.42,2.14,.67,.65,.26,1.22,.53,1.71,.8,.15,.31,.25,.72,.32,1.23s.1,.99,.1,1.43c0,1.01-.15,1.86-.44,2.53-.29,.68-.64,1.2-1.03,1.59-.34-.19-.73-.37-1.17-.54s-.92-.32-1.44-.45c-.52-.13-1.07-.24-1.65-.32s-1.17-.12-1.77-.12Z"/>
      </g>
      <g>
        <path class="cls-1" d="M11.11,53.93c-.18,0-.35,0-.51,0s-.31,.03-.44,.07c-.13,.04-.23,.1-.31,.17-.08,.08-.12,.19-.12,.33v.09s0,.07,.02,.09c.19-.01,.35-.02,.48-.02h.4c.55,0,1.12,.04,1.71,.12s1.15,.22,1.7,.41c.55,.19,1.07,.44,1.55,.75,.49,.31,.91,.69,1.27,1.13,.36,.44,.64,.96,.85,1.56s.32,1.28,.32,2.04c0,1.15-.21,2.16-.62,3.01-.42,.86-1,1.57-1.77,2.13-.76,.56-1.68,.99-2.76,1.27-1.07,.28-2.27,.42-3.59,.42-1.22,0-2.33-.11-3.35-.32-1.01-.21-1.88-.53-2.6-.95s-1.28-.95-1.68-1.59c-.4-.64-.6-1.39-.6-2.25,0-.32,.04-.63,.12-.92,.08-.29,.18-.56,.3-.81,.12-.24,.26-.46,.42-.64,.15-.18,.31-.32,.46-.42,.27,.22,.61,.45,1.04,.67,.43,.23,.91,.43,1.46,.61s1.14,.32,1.79,.43,1.32,.17,2.04,.17c.33,0,.54-.04,.64-.13s.14-.21,.14-.37c0-.09-.02-.18-.05-.27-.12,.01-.22,.02-.28,.02h-.18c-1.09,0-2.11-.11-3.08-.33-.97-.22-1.82-.57-2.55-1.05-.73-.48-1.31-1.09-1.74-1.83-.43-.74-.65-1.64-.65-2.69,0-.88,.18-1.71,.53-2.5,.35-.79,.89-1.49,1.61-2.08,.72-.6,1.62-1.07,2.71-1.43,1.08-.35,2.36-.53,3.82-.53,.72,0,1.41,.04,2.08,.12,.66,.08,1.29,.2,1.87,.34,.58,.14,1.12,.31,1.61,.51,.49,.19,.92,.4,1.29,.61,.11,.23,.19,.54,.24,.93,.05,.39,.07,.75,.07,1.08,0,.76-.11,1.4-.33,1.91-.22,.51-.48,.91-.78,1.2-.25-.14-.55-.28-.88-.41s-.69-.24-1.09-.34-.81-.18-1.25-.24-.88-.09-1.34-.09Z"/>
        <path class="cls-1" d="M27.68,48.2c-.54,.03-1.05,.13-1.53,.29-.48,.16-.89,.34-1.25,.55-.35,.21-.63,.42-.84,.63-.21,.22-.31,.41-.31,.57,0,.13,.05,.24,.14,.33,.09,.09,.2,.14,.31,.17,.2-.23,.45-.46,.76-.69,.31-.23,.67-.43,1.1-.61s.9-.33,1.45-.44c.54-.11,1.15-.17,1.83-.17,.44,0,.92,.04,1.44,.12,.51,.08,1.03,.22,1.55,.42s1.02,.46,1.5,.79c.48,.33,.9,.74,1.27,1.24,.37,.5,.67,1.09,.89,1.78,.22,.69,.33,1.48,.33,2.39,0,.5,0,1.03-.03,1.59-.02,.57-.02,1.11-.02,1.64,0,.76,.08,1.4,.25,1.89s.48,.89,.95,1.18c.01,.09,.02,.2,.02,.32v.29c0,.79-.12,1.48-.37,2.08s-.58,1.11-1,1.52c-.42,.41-.91,.72-1.47,.92-.56,.21-1.15,.31-1.79,.31-.67,0-1.3-.09-1.9-.27-.6-.18-1.13-.48-1.59-.9-.46-.42-.83-.96-1.1-1.63s-.41-1.49-.41-2.47c0-.52,.02-1.01,.06-1.48s.08-.9,.13-1.3,.1-.78,.14-1.12c.04-.34,.07-.66,.07-.95,0-.53-.06-.89-.17-1.09-.12-.19-.3-.29-.56-.29-.17,0-.32,.04-.47,.13l.22,2.71c-.05,.33-.1,.67-.14,1s-.07,.66-.09,.96c-.02,.3-.04,.57-.05,.81-.01,.24-.02,.44-.02,.6,0,.86,.09,1.58,.26,2.14s.37,1.05,.59,1.46c-.49,.51-1.12,.92-1.9,1.22-.78,.3-1.67,.46-2.66,.46-.5,0-1-.07-1.52-.22-.51-.14-.98-.36-1.4-.66-.42-.29-.76-.66-1.02-1.1s-.4-.96-.4-1.55v-19.38c.51-.3,1.14-.55,1.89-.76,.75-.21,1.51-.31,2.3-.31,.58,0,1.14,.06,1.69,.18,.55,.12,1.04,.31,1.46,.57,.43,.26,.77,.6,1.03,1.01,.26,.42,.39,.92,.39,1.5v1.58Z"/>
        <path class="cls-1" d="M46.99,67.53c-1.29,0-2.51-.2-3.65-.6s-2.12-1-2.96-1.81c-.84-.81-1.5-1.82-1.98-3.02-.49-1.21-.73-2.62-.73-4.23,0-1.46,.23-2.78,.68-3.96,.45-1.18,1.09-2.18,1.91-3.01s1.8-1.47,2.94-1.91c1.14-.44,2.4-.66,3.79-.66s2.65,.24,3.79,.71c1.14,.48,2.12,1.14,2.93,2,.81,.86,1.45,1.88,1.89,3.07s.67,2.49,.67,3.91-.21,2.78-.63,3.95c-.42,1.17-1.03,2.17-1.83,3-.8,.82-1.77,1.46-2.92,1.9-1.15,.44-2.45,.66-3.9,.66Zm-.38-6.86c.08,.08,.19,.12,.35,.12,.21,0,.35-.06,.42-.19,.07-.13,.11-.33,.11-.62v-2.37c0-.5,0-.92-.02-1.26-.02-.34-.05-.62-.11-.85-.05-.22-.12-.37-.21-.43s-.18-.1-.29-.1c-.1,0-.18,.02-.24,.05-.06,.03-.11,.07-.16,.12,.01,.18,.03,.34,.05,.5s.04,.33,.05,.52c.01,.19,.02,.42,.03,.68s.02,.57,.02,.94v2.91Z"/>
        <path class="cls-1" d="M59.95,48.87c.46,0,.89,.03,1.26,.1,.38,.07,.69,.17,.95,.3-.62,.45-1.04,.86-1.25,1.21-.08,.13-.12,.27-.12,.42,0,.13,.04,.25,.12,.35s.23,.15,.46,.15c.32-.51,.67-.95,1.05-1.34,.38-.38,.8-.7,1.26-.96,.46-.26,.98-.45,1.55-.58s1.2-.19,1.9-.19c.43,0,.93,.04,1.5,.12,.57,.08,1.16,.24,1.77,.48,.61,.24,1.21,.58,1.8,1.01,.59,.44,1.12,1.01,1.59,1.71s.84,1.56,1.13,2.58c.29,1.02,.43,2.23,.43,3.64s-.2,2.74-.6,3.88-.97,2.09-1.73,2.87c-.75,.78-1.67,1.37-2.75,1.78-1.08,.4-2.3,.61-3.66,.61-.59,0-1.08-.02-1.49-.07-.41-.04-.75-.1-1.03-.16-.28-.06-.5-.12-.66-.18-.17-.06-.29-.11-.38-.16-.08,.06-.12,.15-.12,.28,0,.17,.06,.31,.18,.42s.32,.21,.59,.29c.27,.08,.62,.14,1.06,.19s.97,.09,1.6,.12v4.42c-.22,.1-.48,.2-.77,.29-.29,.09-.61,.18-.94,.25-.33,.07-.67,.13-1.02,.17-.35,.04-.69,.06-1.02,.06-.75,0-1.44-.07-2.06-.21-.62-.14-1.15-.36-1.59-.67s-.78-.69-1.02-1.17c-.24-.48-.37-1.06-.37-1.74v-13.37c-.33-.46-.58-.99-.74-1.58-.16-.59-.24-1.2-.24-1.84,0-.27,.02-.55,.06-.85,.04-.3,.1-.6,.18-.91,.08-.31,.19-.61,.31-.91,.12-.29,.27-.57,.43-.82h2.36Zm6.14,11.41c.08,.08,.19,.12,.35,.12,.21,0,.35-.06,.42-.19,.07-.13,.11-.33,.11-.62v-1.69c0-.5,0-.92-.02-1.26-.02-.34-.05-.62-.11-.85-.05-.22-.12-.37-.21-.43s-.18-.1-.29-.1c-.1,0-.18,.02-.24,.05-.06,.03-.11,.07-.16,.12,.01,.18,.03,.34,.05,.5s.04,.33,.05,.52c.01,.19,.02,.42,.03,.68s.02,.57,.02,.94v2.23Z"/>
        <path class="cls-1" d="M93.31,67.53c-1.29,0-2.51-.2-3.65-.6s-2.12-1-2.96-1.81c-.84-.81-1.5-1.82-1.98-3.02-.49-1.21-.73-2.62-.73-4.23,0-1.46,.23-2.78,.68-3.96,.45-1.18,1.09-2.18,1.91-3.01s1.8-1.47,2.94-1.91c1.14-.44,2.4-.66,3.79-.66s2.65,.24,3.79,.71c1.14,.48,2.12,1.14,2.93,2,.81,.86,1.45,1.88,1.89,3.07s.67,2.49,.67,3.91-.21,2.78-.63,3.95c-.42,1.17-1.03,2.17-1.83,3-.8,.82-1.77,1.46-2.92,1.9-1.15,.44-2.45,.66-3.9,.66Zm-.38-6.86c.08,.08,.19,.12,.35,.12,.21,0,.35-.06,.42-.19,.07-.13,.11-.33,.11-.62v-2.37c0-.5,0-.92-.02-1.26-.02-.34-.05-.62-.11-.85-.05-.22-.12-.37-.21-.43s-.18-.1-.29-.1c-.1,0-.18,.02-.24,.05-.06,.03-.11,.07-.16,.12,.01,.18,.03,.34,.05,.5s.04,.33,.05,.52c.01,.19,.02,.42,.03,.68s.02,.57,.02,.94v2.91Z"/>
        <path class="cls-1" d="M114.16,50.25c-.31,0-.63-.01-.96-.03-.33-.02-.64-.05-.94-.08s-.58-.07-.83-.11c-.25-.04-.46-.08-.62-.12-.03,.03-.06,.07-.08,.12s-.03,.12-.03,.21c0,.19,.27,.36,.8,.52,.53,.16,1.39,.24,2.59,.24,.7,0,1.28-.02,1.74-.06,.46-.04,.85-.09,1.19-.14,.04,.09,.08,.23,.12,.42,.04,.19,.08,.4,.11,.63,.03,.23,.06,.48,.07,.73s.03,.48,.03,.68c0,.56-.05,1.05-.15,1.45s-.24,.76-.42,1.07h-3.07v10.31c-.38,.24-.76,.44-1.15,.59s-.77,.27-1.14,.35c-.37,.08-.73,.14-1.06,.17-.34,.03-.65,.04-.94,.04-.62,0-1.2-.06-1.74-.17-.54-.12-1.02-.29-1.42-.53-.4-.24-.72-.54-.96-.91-.23-.37-.35-.8-.35-1.31v-7.79h.51c.29,0,.5-.05,.63-.15s.2-.23,.2-.4c0-.07-.01-.13-.03-.2h-2.76c-.32-.46-.56-.98-.72-1.55-.16-.57-.24-1.14-.24-1.7,0-.6,.08-1.23,.24-1.9,.16-.67,.4-1.25,.72-1.75h1.44c.13-.92,.38-1.73,.75-2.44,.37-.71,.84-1.3,1.42-1.79,.58-.48,1.27-.84,2.05-1.09,.79-.24,1.66-.37,2.62-.37,.76,0,1.46,.06,2.09,.18,.63,.12,1.19,.28,1.69,.47,.49,.19,.92,.4,1.27,.63,.35,.23,.64,.46,.85,.68,.04,.13,.08,.28,.1,.44,.02,.16,.04,.32,.05,.47,.01,.16,.02,.3,.02,.42v.31c0,.62-.04,1.17-.12,1.64-.08,.48-.21,.93-.37,1.36-.34,.13-.79,.24-1.34,.32-.55,.08-1.17,.12-1.87,.12Z"/>
      </g>
      <g>
        <path class="cls-1" d="M14.88,88.03c-.23,0-.44,0-.66,.01s-.4,.03-.56,.08c-.16,.05-.29,.12-.39,.22-.1,.1-.15,.24-.15,.42v.12s0,.09,.02,.12c.24-.01,.44-.02,.61-.02h.51c.7,0,1.43,.05,2.18,.16s1.47,.28,2.17,.52c.7,.24,1.36,.56,1.98,.95,.62,.4,1.16,.87,1.62,1.44,.46,.56,.82,1.23,1.09,1.99s.4,1.63,.4,2.6c0,1.47-.26,2.74-.79,3.84-.53,1.09-1.28,2-2.25,2.72-.97,.72-2.14,1.26-3.51,1.62-1.37,.36-2.89,.54-4.57,.54-1.55,0-2.97-.13-4.26-.4-1.29-.27-2.39-.67-3.31-1.2s-1.63-1.21-2.14-2.02c-.51-.81-.76-1.77-.76-2.87,0-.41,.05-.8,.15-1.17,.1-.37,.23-.72,.38-1.03,.15-.31,.33-.58,.53-.81,.2-.23,.39-.41,.59-.54,.34,.28,.78,.57,1.32,.86,.54,.29,1.16,.55,1.86,.77s1.46,.41,2.27,.55,1.68,.21,2.6,.21c.42,0,.69-.06,.81-.17s.18-.27,.18-.46c0-.11-.02-.23-.06-.34-.16,.01-.27,.02-.36,.02h-.23c-1.38,0-2.69-.14-3.92-.42-1.23-.28-2.32-.73-3.25-1.34-.93-.61-1.67-1.39-2.22-2.34-.55-.94-.82-2.09-.82-3.42,0-1.11,.23-2.17,.68-3.18,.45-1.01,1.13-1.89,2.05-2.65,.92-.76,2.06-1.37,3.45-1.82,1.38-.45,3-.68,4.86-.68,.92,0,1.8,.05,2.64,.16,.85,.11,1.64,.25,2.38,.43,.74,.18,1.42,.4,2.05,.65,.63,.25,1.17,.5,1.64,.77,.14,.3,.24,.69,.31,1.18,.06,.49,.1,.95,.1,1.37,0,.97-.14,1.78-.42,2.43-.28,.65-.61,1.16-.99,1.52-.32-.18-.7-.36-1.12-.52s-.88-.31-1.38-.43-1.03-.23-1.59-.31-1.12-.12-1.7-.12Z"/>
        <path class="cls-1" d="M24.94,84.35c.28-.18,.56-.33,.85-.44,.28-.11,.58-.25,.91-.42-.27-.14-.54-.34-.82-.59-.28-.25-.54-.56-.77-.92-.23-.36-.42-.77-.57-1.24s-.22-.99-.22-1.56c0-.9,.16-1.72,.48-2.46,.32-.74,.75-1.37,1.3-1.9s1.19-.94,1.92-1.24,1.52-.44,2.37-.44,1.65,.16,2.38,.46c.73,.31,1.36,.73,1.89,1.27s.95,1.17,1.26,1.91c.3,.74,.46,1.54,.46,2.4,0,.73-.12,1.41-.37,2.04s-.57,1.19-.98,1.68-.89,.91-1.44,1.24c-.55,.33-1.12,.56-1.71,.69,0,.21,.05,.4,.14,.56s.25,.24,.48,.24c.7,0,1.44-.28,2.2-.85,.04,.03,.11,.08,.21,.15,.1,.07,.21,.16,.32,.25,.11,.1,.22,.19,.32,.29,.1,.09,.16,.16,.19,.2v8.37c0,.97,.11,1.81,.32,2.51s.61,1.23,1.2,1.6c.01,.11,.02,.25,.02,.41v.37c0,1.07-.15,2-.44,2.77-.3,.78-.71,1.41-1.25,1.91-.54,.5-1.17,.87-1.91,1.11-.74,.24-1.55,.36-2.42,.36-.68,0-1.38-.11-2.12-.34-.74-.23-1.42-.61-2.03-1.14-.61-.54-1.12-1.25-1.52-2.15s-.6-2.01-.6-3.35v-13.74Z"/>
        <path class="cls-1" d="M38.86,75.56c.31-.16,.68-.31,1.11-.46s.92-.27,1.47-.38,1.13-.16,1.75-.16c1.02,0,1.89,.11,2.61,.34,.72,.23,1.32,.54,1.79,.94s.81,.89,1.02,1.45c.22,.56,.33,1.19,.33,1.88v14.86c0,.97,.11,1.81,.32,2.51s.61,1.23,1.2,1.6c.01,.11,.02,.25,.02,.41v.37c0,2.04-.52,3.58-1.55,4.61-1.04,1.03-2.48,1.54-4.32,1.54-.83,0-1.64-.12-2.41-.36-.78-.24-1.46-.64-2.05-1.2-.59-.56-1.07-1.3-1.43-2.22s-.54-2.05-.54-3.4v-21.97c.14-.08,.37-.2,.68-.36Z"/>
        <path class="cls-1" d="M69.6,101.25c-.4,.86-.86,1.54-1.41,2.05-.54,.51-1.14,.89-1.8,1.15-.66,.26-1.36,.43-2.1,.51-.75,.08-1.53,.12-2.35,.12-.49,0-.99-.02-1.5-.06-.51-.04-1-.1-1.48-.18-.48-.08-.92-.17-1.33-.26-.41-.1-.76-.21-1.06-.34-.96-1.96-1.86-4.06-2.7-6.29-.84-2.23-1.62-4.75-2.36-7.56-.21-.21-.41-.47-.6-.77-.19-.3-.36-.64-.51-1.01s-.26-.77-.35-1.19-.13-.86-.13-1.31c0-.78,.1-1.55,.3-2.33,.2-.77,.52-1.5,.97-2.18h5.26c1.02,0,1.85,.15,2.52,.43,.66,.29,1.19,.67,1.6,1.14,.4,.47,.7,1.01,.9,1.61,.2,.6,.34,1.21,.42,1.83-.04,.38-.09,.87-.14,1.47s-.09,1.25-.14,1.96-.08,1.43-.11,2.18c-.03,.75-.04,1.47-.04,2.16v.52c0,.18,0,.34,.02,.5,.15,.07,.32,.11,.49,.11,.41,0,.61-.27,.61-.82,0-.41,.01-.93,.04-1.58s.07-1.34,.12-2.09c.05-.75,.11-1.53,.17-2.34,.06-.8,.13-1.58,.19-2.32s.12-1.43,.18-2.06c.06-.63,.11-1.14,.15-1.53,.52-.35,1.18-.66,1.98-.93,.8-.27,1.67-.4,2.61-.4,1.04,0,1.93,.13,2.67,.4,.74,.27,1.34,.63,1.81,1.09,.46,.46,.81,.99,1.03,1.59,.22,.6,.33,1.24,.33,1.91,0,.37-.03,.84-.11,1.42s-.17,1.11-.3,1.61c-.25,.97-.54,2.01-.86,3.1-.32,1.09-.64,2.17-.98,3.23-.34,1.06-.68,2.07-1.04,3.03-.35,.96-.68,1.78-.99,2.47Z"/>
        <path class="cls-1" d="M86.72,105.35c-1.93,0-3.68-.28-5.24-.84-1.56-.56-2.9-1.36-4.01-2.41-1.11-1.05-1.96-2.33-2.56-3.84s-.9-3.21-.9-5.09c0-1.99,.32-3.74,.96-5.26,.64-1.52,1.51-2.8,2.6-3.83,1.09-1.03,2.36-1.8,3.82-2.33,1.45-.52,2.98-.78,4.59-.78,1.7,0,3.24,.25,4.61,.75,1.37,.5,2.53,1.19,3.5,2.06,.96,.87,1.71,1.9,2.23,3.07,.52,1.17,.78,2.42,.78,3.74,0,1.25-.22,2.33-.67,3.23-.44,.9-1.06,1.65-1.85,2.23-.79,.59-1.73,1.02-2.81,1.3s-2.26,.42-3.53,.42c-.96,0-1.88-.11-2.78-.34s-1.66-.53-2.29-.91c-.07,.06-.12,.13-.14,.22-.02,.09-.03,.17-.03,.24,0,.21,.16,.42,.46,.62,.31,.21,.71,.39,1.2,.55,.49,.16,1.06,.3,1.69,.4s1.27,.16,1.9,.16c.87,0,1.67-.06,2.39-.18s1.36-.27,1.93-.44,1.07-.37,1.49-.58,.77-.42,1.06-.61c.18,.16,.34,.38,.48,.69,.13,.3,.25,.64,.35,1,.1,.37,.17,.74,.22,1.13s.07,.74,.07,1.07-.02,.63-.05,.92c-.03,.29-.08,.54-.14,.75-.45,.38-.94,.74-1.48,1.09-.54,.35-1.17,.65-1.9,.91-.73,.26-1.58,.47-2.55,.64-.96,.16-2.1,.24-3.41,.24Zm-.27-14.31c.35,0,.62-.07,.79-.22,.18-.15,.26-.34,.26-.58,0-.28-.1-.48-.31-.59-.21-.11-.45-.17-.73-.17-.4,0-.71,.11-.94,.33-.23,.22-.38,.51-.43,.88,.14,.08,.32,.17,.55,.24,.23,.08,.49,.12,.8,.12Z"/>
        <path class="cls-1" d="M101.94,81.58c.87,0,1.6,.14,2.19,.42,.58,.28,1.05,.68,1.38,1.18-.18,.2-.36,.44-.52,.72-.16,.28-.3,.56-.42,.84s-.22,.54-.28,.78c-.07,.25-.11,.44-.11,.58,0,.17,.06,.32,.19,.45,.13,.13,.32,.2,.59,.2,.27-1.04,.64-1.92,1.13-2.62,.49-.7,1.04-1.27,1.67-1.69,.63-.42,1.3-.72,2.03-.9,.72-.18,1.46-.26,2.21-.26,.61,0,1.16,.04,1.67,.12s.97,.18,1.37,.31c.41,.13,.77,.27,1.08,.43,.31,.16,.57,.32,.78,.48,.23,.59,.39,1.22,.49,1.88,.1,.66,.15,1.31,.15,1.95,0,1.14-.1,2.09-.31,2.85-.21,.76-.43,1.39-.67,1.88-.23,.11-.51,.23-.85,.34-.34,.11-.71,.21-1.11,.3s-.83,.15-1.28,.2-.9,.07-1.33,.07c-.46,0-.88-.01-1.24-.04-.36-.03-.69-.07-.98-.12s-.57-.11-.81-.17c-.25-.06-.5-.12-.75-.18-.11,.11-.17,.27-.17,.49,0,.2,.13,.35,.39,.47,.26,.11,.73,.23,1.41,.36v10.61c-.48,.31-.97,.56-1.46,.75-.49,.19-.98,.34-1.45,.45-.47,.11-.92,.18-1.35,.21-.43,.03-.83,.05-1.19,.05-.79,0-1.53-.07-2.22-.22-.69-.15-1.29-.37-1.81-.68-.51-.3-.92-.69-1.22-1.15-.3-.46-.44-1.02-.44-1.67v-10.89c-.42-.59-.74-1.26-.94-2.01-.2-.75-.31-1.53-.31-2.35,0-.68,.1-1.42,.31-2.24,.2-.82,.52-1.54,.94-2.18h3.23Z"/>
      </g>
    </g>
  </g>
</svg>