<?xml version="1.0" encoding="UTF-8"?>
<svg id="Lager_2" data-name="Lager 2" xmlns="http://www.w3.org/2000/svg" viewBox="0 0 235.03 34.76">
  <defs>
    <style>
      .cls-1 {
        fill: #eb5e1c;
      }
    </style>
  </defs>
  <g id="Lager_1-2" data-name="Lager 1">
    <g>
      <g>
        <path class="cls-1" d="M11.26,27.52c0,1.29-.16,2.4-.49,3.32-.33,.92-.77,1.67-1.33,2.25-.56,.58-1.21,1-1.94,1.27s-1.51,.4-2.33,.4-1.55-.1-2.19-.31c-.64-.21-1.19-.5-1.63-.88-.44-.38-.78-.84-1-1.39-.23-.54-.34-1.16-.34-1.84,0-.27,.02-.53,.07-.78s.1-.49,.16-.71c.06-.22,.13-.41,.2-.58,.07-.17,.14-.3,.19-.39,.25-.06,.58-.11,.98-.15s.9-.07,1.49-.07c.44,0,.89,.04,1.34,.12s.89,.17,1.34,.28c.06,.02,.12,.04,.2,.04,.08,0,.14,0,.18,0,.19,0,.31-.06,.36-.19,.05-.13,.07-.25,.07-.37-.14-.04-.33-.1-.57-.17-.24-.07-.51-.14-.81-.19-.3-.05-.63-.1-.96-.15-.34-.04-.68-.07-1.02-.07-.22-.4-.39-.86-.51-1.39-.12-.53-.18-1.16-.18-1.89V12.66c.22-.14,.44-.26,.66-.35,.22-.09,.46-.2,.71-.33-.21-.11-.43-.27-.65-.46-.22-.2-.42-.44-.61-.72s-.33-.61-.45-.97-.17-.77-.17-1.23c0-.71,.12-1.35,.37-1.93,.25-.58,.59-1.08,1.02-1.5,.43-.42,.94-.74,1.51-.97s1.2-.35,1.86-.35,1.3,.12,1.87,.37c.57,.24,1.07,.58,1.49,1s.75,.92,.99,1.5c.24,.58,.36,1.21,.36,1.88,0,.58-.1,1.11-.29,1.6-.19,.49-.45,.93-.77,1.32s-.7,.71-1.13,.97c-.43,.26-.88,.44-1.35,.54,0,.17,.04,.31,.11,.44,.07,.13,.2,.19,.37,.19,.55,0,1.13-.22,1.73-.67,.03,.02,.09,.06,.18,.12,.09,.06,.19,.12,.3,.21s.22,.17,.33,.27c.11,.09,.21,.18,.3,.26v13.68Z"/>
        <path class="cls-1" d="M23.07,27.97c-.13,.11-.29,.22-.47,.34-.18,.12-.4,.22-.66,.31-.25,.09-.55,.16-.9,.22-.34,.06-.74,.09-1.2,.09-.5,0-1.01-.04-1.54-.13-.53-.09-1.05-.24-1.55-.46s-.98-.51-1.44-.87c-.45-.37-.85-.82-1.19-1.37-.34-.55-.61-1.2-.81-1.94s-.3-1.62-.3-2.62v-4.17c-.23-.41-.43-.88-.6-1.42s-.25-1.15-.25-1.83c0-.3,.02-.61,.06-.93,.04-.32,.1-.64,.17-.95,.08-.32,.18-.62,.3-.92,.12-.3,.27-.58,.45-.83h3.65c.64,0,1.23,.08,1.78,.22s1.01,.38,1.4,.71c.39,.32,.69,.73,.91,1.22,.22,.49,.32,1.08,.32,1.77v5.38c0,.62,.06,1.04,.17,1.27,.12,.23,.26,.34,.44,.34,.11,0,.2-.02,.26-.05,.06-.03,.12-.07,.17-.12-.06-.19-.1-.42-.12-.68-.03-.27-.04-.61-.04-1.03V11.31c.21-.12,.45-.25,.71-.37,.26-.13,.56-.24,.9-.34,.34-.1,.73-.18,1.15-.25s.92-.1,1.47-.1c.96,0,1.79,.13,2.49,.39,.7,.26,1.22,.58,1.58,.97v8.65c0,.76,.08,1.42,.25,1.97s.48,.97,.95,1.25c.01,.09,.02,.2,.02,.32v.29c0,.84-.11,1.57-.34,2.18-.23,.61-.54,1.11-.94,1.5-.4,.39-.87,.68-1.42,.87s-1.14,.28-1.79,.28c-.82,0-1.58-.19-2.28-.56s-1.23-.95-1.59-1.71c-.38,0-.56,.18-.56,.55,0,.12,.03,.25,.1,.38,.07,.13,.16,.26,.28,.38Z"/>
        <path class="cls-1" d="M32.87,5.75c.24-.12,.53-.24,.87-.36,.34-.12,.72-.22,1.15-.3,.43-.08,.89-.12,1.38-.12,.8,0,1.48,.09,2.05,.27,.57,.18,1.04,.42,1.4,.74s.63,.7,.81,1.14c.17,.44,.26,.94,.26,1.48v11.67c0,.76,.08,1.42,.25,1.97s.48,.97,.95,1.25c.01,.09,.02,.2,.02,.32v.29c0,1.61-.41,2.81-1.22,3.62-.81,.81-1.95,1.21-3.4,1.21-.65,0-1.28-.09-1.89-.28-.61-.19-1.15-.5-1.61-.95-.47-.44-.84-1.02-1.12-1.74s-.42-1.61-.42-2.67V6.03c.11-.07,.29-.16,.53-.28Z"/>
        <path class="cls-1" d="M42.81,12.66c.22-.14,.44-.26,.66-.35,.22-.09,.46-.2,.71-.33-.21-.11-.43-.27-.65-.46-.22-.2-.42-.44-.61-.72-.18-.28-.33-.61-.45-.97s-.17-.77-.17-1.23c0-.71,.12-1.35,.37-1.93,.25-.58,.59-1.08,1.02-1.5s.94-.74,1.51-.97,1.2-.35,1.86-.35,1.3,.12,1.87,.37c.57,.24,1.07,.58,1.49,1,.42,.42,.75,.92,.99,1.5,.24,.58,.36,1.21,.36,1.88,0,.58-.1,1.11-.29,1.6-.19,.49-.45,.93-.77,1.32s-.7,.71-1.13,.97c-.43,.26-.88,.44-1.35,.54,0,.17,.04,.31,.11,.44,.07,.13,.2,.19,.37,.19,.55,0,1.13-.22,1.73-.67,.03,.02,.09,.06,.17,.12,.08,.06,.16,.12,.25,.2,.09,.08,.17,.15,.25,.22,.08,.07,.13,.12,.15,.16v6.58c0,.76,.08,1.42,.25,1.97s.48,.97,.95,1.25c.01,.09,.02,.2,.02,.32v.29c0,.84-.12,1.57-.35,2.18-.23,.61-.56,1.11-.98,1.5-.42,.39-.92,.68-1.5,.87-.58,.19-1.21,.28-1.9,.28-.53,0-1.09-.09-1.67-.27-.58-.18-1.11-.48-1.59-.9-.48-.42-.88-.98-1.2-1.69s-.47-1.58-.47-2.63V12.66Z"/>
        <path class="cls-1" d="M70,20.41c0,.76,.08,1.4,.25,1.89s.48,.89,.95,1.18c.01,.09,.02,.2,.02,.32v.29c0,.84-.13,1.57-.4,2.18-.27,.61-.61,1.11-1.04,1.5-.43,.39-.91,.68-1.45,.87s-1.1,.28-1.66,.28c-.4,0-.79-.05-1.17-.14-.38-.09-.74-.24-1.08-.42-.34-.19-.64-.43-.91-.72-.27-.29-.48-.64-.64-1.04-.19,0-.33,.05-.42,.15-.09,.1-.14,.23-.14,.4,0,.16,.05,.32,.15,.5,.1,.18,.24,.36,.43,.55-.35,.24-.83,.43-1.43,.55-.6,.12-1.21,.18-1.83,.18-1.01,0-1.92-.14-2.75-.42s-1.53-.69-2.13-1.23c-.59-.54-1.05-1.2-1.38-1.99-.33-.78-.49-1.68-.49-2.7s.17-1.96,.52-2.73c.35-.77,.82-1.41,1.42-1.91,.6-.5,1.29-.88,2.08-1.12,.79-.24,1.63-.37,2.52-.37,.4,0,.75,.01,1.06,.04,.31,.03,.58,.06,.8,.09,.25,.04,.47,.09,.65,.13,.03-.11,.05-.21,.05-.28,0-.14-.07-.27-.22-.37-.15-.1-.35-.17-.59-.22s-.53-.09-.85-.11c-.32-.02-.65-.03-.98-.03-.75,0-1.51,.08-2.26,.25s-1.43,.42-2.03,.76c-.24-.41-.44-.93-.59-1.56s-.22-1.27-.22-1.93c0-.31,.02-.62,.06-.94,.04-.32,.12-.6,.24-.84,.29-.13,.66-.28,1.1-.44,.45-.16,.97-.31,1.56-.45s1.25-.26,1.96-.36c.71-.1,1.48-.15,2.3-.15,1.43,0,2.68,.16,3.75,.48,1.07,.32,1.96,.78,2.67,1.39,.71,.6,1.24,1.35,1.59,2.23,.35,.88,.53,1.87,.53,2.98v3.25Zm-8.62,.81c-.25,0-.43,.06-.54,.19-.11,.13-.16,.27-.16,.44,0,.22,.08,.38,.24,.46,.16,.09,.35,.13,.57,.13,.35,0,.63-.09,.81-.27,.19-.18,.28-.5,.28-.96h-1.21Z"/>
        <path class="cls-1" d="M81.72,15.55c-.18,0-.35,0-.51,0s-.31,.03-.44,.07c-.13,.04-.23,.1-.31,.17-.08,.08-.12,.19-.12,.33v.09s0,.07,.02,.09c.19-.01,.35-.02,.48-.02h.4c.55,0,1.12,.04,1.71,.12s1.15,.22,1.7,.41c.55,.19,1.07,.44,1.55,.75,.49,.31,.91,.69,1.27,1.13,.36,.44,.64,.96,.85,1.56s.32,1.28,.32,2.04c0,1.15-.21,2.16-.62,3.01-.42,.86-1,1.57-1.77,2.13-.76,.56-1.68,.99-2.76,1.27-1.07,.28-2.27,.42-3.59,.42-1.22,0-2.33-.11-3.35-.32-1.01-.21-1.88-.53-2.6-.95s-1.28-.95-1.68-1.59c-.4-.64-.6-1.39-.6-2.25,0-.32,.04-.63,.12-.92,.08-.29,.18-.56,.3-.81,.12-.24,.26-.46,.42-.64,.15-.18,.31-.32,.46-.42,.27,.22,.61,.45,1.04,.67,.43,.23,.91,.43,1.46,.61s1.14,.32,1.79,.43,1.32,.17,2.04,.17c.33,0,.54-.04,.64-.13s.14-.21,.14-.37c0-.09-.02-.18-.05-.27-.12,.01-.22,.02-.28,.02h-.18c-1.09,0-2.11-.11-3.08-.33-.97-.22-1.82-.57-2.55-1.05-.73-.48-1.31-1.09-1.74-1.83-.43-.74-.65-1.64-.65-2.69,0-.88,.18-1.71,.53-2.5,.35-.79,.89-1.49,1.61-2.08,.72-.6,1.62-1.07,2.71-1.43,1.08-.35,2.36-.53,3.82-.53,.72,0,1.41,.04,2.08,.12,.66,.08,1.29,.2,1.87,.34,.58,.14,1.12,.31,1.61,.51,.49,.19,.92,.4,1.29,.61,.11,.23,.19,.54,.24,.93,.05,.39,.07,.75,.07,1.08,0,.76-.11,1.4-.33,1.91-.22,.51-.48,.91-.78,1.2-.25-.14-.55-.28-.88-.41s-.69-.24-1.09-.34-.81-.18-1.25-.24-.88-.09-1.34-.09Z"/>
      </g>
      <g>
        <path class="cls-1" d="M154.39,15.55c-.18,0-.35,0-.51,0s-.31,.03-.44,.07c-.13,.04-.23,.1-.31,.17-.08,.08-.12,.19-.12,.33v.09s0,.07,.02,.09c.19-.01,.35-.02,.48-.02h.4c.55,0,1.12,.04,1.71,.12s1.15,.22,1.7,.41c.55,.19,1.07,.44,1.55,.75,.49,.31,.91,.69,1.27,1.13,.36,.44,.64,.96,.85,1.56s.32,1.28,.32,2.04c0,1.15-.21,2.16-.62,3.01-.42,.86-1,1.57-1.77,2.13-.76,.56-1.68,.99-2.76,1.27-1.07,.28-2.27,.42-3.59,.42-1.22,0-2.33-.11-3.35-.32-1.01-.21-1.88-.53-2.6-.95s-1.28-.95-1.68-1.59c-.4-.64-.6-1.39-.6-2.25,0-.32,.04-.63,.12-.92,.08-.29,.18-.56,.3-.81,.12-.24,.26-.46,.42-.64,.15-.18,.31-.32,.46-.42,.27,.22,.61,.45,1.04,.67,.43,.23,.91,.43,1.46,.61s1.14,.32,1.79,.43,1.32,.17,2.04,.17c.33,0,.54-.04,.64-.13s.14-.21,.14-.37c0-.09-.02-.18-.05-.27-.12,.01-.22,.02-.28,.02h-.18c-1.09,0-2.11-.11-3.08-.33-.97-.22-1.82-.57-2.55-1.05-.73-.48-1.31-1.09-1.74-1.83-.43-.74-.65-1.64-.65-2.69,0-.88,.18-1.71,.53-2.5,.35-.79,.89-1.49,1.61-2.08,.72-.6,1.62-1.07,2.71-1.43,1.08-.35,2.36-.53,3.82-.53,.72,0,1.41,.04,2.08,.12,.66,.08,1.29,.2,1.87,.34,.58,.14,1.12,.31,1.61,.51,.49,.19,.92,.4,1.29,.61,.11,.23,.19,.54,.24,.93,.05,.39,.07,.75,.07,1.08,0,.76-.11,1.4-.33,1.91-.22,.51-.48,.91-.78,1.2-.25-.14-.55-.28-.88-.41s-.69-.24-1.09-.34-.81-.18-1.25-.24-.88-.09-1.34-.09Z"/>
        <path class="cls-1" d="M162.29,12.66c.22-.14,.44-.26,.66-.35,.22-.09,.46-.2,.71-.33-.21-.11-.43-.27-.65-.46-.22-.2-.42-.44-.61-.72-.18-.28-.33-.61-.45-.97s-.17-.77-.17-1.23c0-.71,.12-1.35,.37-1.93,.25-.58,.59-1.08,1.02-1.5s.94-.74,1.51-.97,1.2-.35,1.86-.35,1.3,.12,1.87,.37c.57,.24,1.07,.58,1.49,1,.42,.42,.75,.92,.99,1.5,.24,.58,.36,1.21,.36,1.88,0,.58-.1,1.11-.29,1.6-.19,.49-.45,.93-.77,1.32s-.7,.71-1.13,.97c-.43,.26-.88,.44-1.35,.54,0,.17,.04,.31,.11,.44,.07,.13,.2,.19,.37,.19,.55,0,1.13-.22,1.73-.67,.03,.02,.09,.06,.17,.12,.08,.06,.16,.12,.25,.2,.09,.08,.17,.15,.25,.22,.08,.07,.13,.12,.15,.16v6.58c0,.76,.08,1.42,.25,1.97s.48,.97,.95,1.25c.01,.09,.02,.2,.02,.32v.29c0,.84-.12,1.57-.35,2.18-.23,.61-.56,1.11-.98,1.5-.42,.39-.92,.68-1.5,.87-.58,.19-1.21,.28-1.9,.28-.53,0-1.09-.09-1.67-.27-.58-.18-1.11-.48-1.59-.9-.48-.42-.88-.98-1.2-1.69s-.47-1.58-.47-2.63V12.66Z"/>
        <path class="cls-1" d="M173.22,5.75c.24-.12,.53-.24,.87-.36,.34-.12,.72-.22,1.15-.3,.43-.08,.89-.12,1.38-.12,.8,0,1.48,.09,2.05,.27,.57,.18,1.04,.42,1.4,.74s.63,.7,.81,1.14c.17,.44,.26,.94,.26,1.48v11.67c0,.76,.08,1.42,.25,1.97s.48,.97,.95,1.25c.01,.09,.02,.2,.02,.32v.29c0,1.61-.41,2.81-1.22,3.62-.81,.81-1.95,1.21-3.4,1.21-.65,0-1.28-.09-1.89-.28-.61-.19-1.15-.5-1.61-.95-.47-.44-.84-1.02-1.12-1.74s-.42-1.61-.42-2.67V6.03c.11-.07,.29-.16,.53-.28Z"/>
        <path class="cls-1" d="M197.37,25.93c-.31,.68-.68,1.21-1.1,1.61-.43,.4-.9,.7-1.41,.9-.51,.21-1.07,.34-1.65,.4-.59,.06-1.2,.09-1.84,.09-.39,0-.78-.02-1.18-.05-.4-.03-.79-.08-1.16-.14-.38-.06-.72-.13-1.05-.21s-.6-.17-.83-.27c-.75-1.54-1.46-3.19-2.12-4.94-.66-1.75-1.28-3.73-1.85-5.94-.17-.17-.32-.37-.47-.61-.15-.24-.28-.5-.4-.8-.12-.29-.21-.61-.27-.94s-.1-.67-.1-1.03c0-.61,.08-1.22,.23-1.83,.16-.61,.41-1.18,.76-1.71h4.14c.8,0,1.46,.11,1.98,.34,.52,.23,.94,.53,1.25,.9,.32,.37,.55,.79,.71,1.26s.27,.95,.33,1.44c-.03,.3-.07,.68-.11,1.15-.04,.47-.08,.98-.11,1.54s-.06,1.12-.08,1.71c-.02,.59-.03,1.15-.03,1.69v.41c0,.14,0,.27,.02,.39,.12,.06,.25,.08,.38,.08,.32,0,.48-.22,.48-.65,0-.32,.01-.73,.03-1.24s.05-1.05,.09-1.64c.04-.59,.08-1.2,.13-1.84,.05-.63,.1-1.24,.15-1.83s.1-1.13,.14-1.62c.04-.49,.08-.89,.12-1.2,.41-.28,.93-.52,1.55-.73,.62-.21,1.31-.32,2.05-.32,.82,0,1.52,.11,2.1,.32,.58,.21,1.05,.5,1.42,.85,.37,.36,.63,.78,.81,1.25,.17,.47,.26,.97,.26,1.5,0,.29-.03,.66-.08,1.11-.05,.45-.13,.88-.23,1.26-.2,.76-.42,1.58-.67,2.43-.25,.86-.51,1.71-.77,2.54s-.54,1.63-.81,2.38c-.28,.75-.54,1.4-.78,1.94Z"/>
        <path class="cls-1" d="M210.82,29.15c-1.52,0-2.89-.22-4.12-.66-1.23-.44-2.28-1.07-3.15-1.89-.87-.83-1.54-1.83-2.01-3.01s-.71-2.52-.71-4c0-1.56,.25-2.94,.76-4.14,.5-1.2,1.18-2.2,2.04-3.01,.86-.81,1.86-1.42,3-1.83,1.14-.41,2.34-.61,3.6-.61,1.34,0,2.55,.2,3.62,.59,1.07,.39,1.99,.93,2.75,1.62,.76,.69,1.34,1.49,1.75,2.41,.41,.92,.62,1.9,.62,2.94,0,.99-.17,1.83-.52,2.54-.35,.71-.83,1.29-1.45,1.75-.62,.46-1.36,.8-2.21,1.02s-1.78,.33-2.77,.33c-.75,0-1.48-.09-2.18-.27s-1.3-.42-1.8-.71c-.06,.04-.09,.1-.11,.17-.02,.07-.02,.14-.02,.19,0,.17,.12,.33,.37,.49,.24,.16,.56,.3,.95,.43,.39,.13,.83,.23,1.33,.32,.5,.08,1,.12,1.49,.12,.69,0,1.31-.05,1.88-.14s1.07-.21,1.52-.35,.84-.29,1.17-.46,.61-.33,.83-.48c.14,.12,.27,.3,.37,.54,.1,.24,.2,.5,.27,.79,.08,.29,.14,.58,.17,.89,.04,.3,.06,.58,.06,.84s-.01,.5-.04,.72c-.03,.23-.06,.42-.11,.59-.35,.3-.74,.58-1.16,.86-.42,.27-.92,.51-1.5,.71-.58,.21-1.24,.37-2,.5-.76,.13-1.65,.19-2.68,.19Zm-.22-11.24c.28,0,.48-.06,.62-.17s.21-.27,.21-.46c0-.22-.08-.38-.24-.46-.16-.09-.35-.13-.57-.13-.31,0-.56,.09-.74,.26-.18,.17-.3,.4-.34,.69,.11,.07,.25,.13,.43,.19,.18,.06,.39,.09,.63,.09Z"/>
        <path class="cls-1" d="M222.78,10.48c.69,0,1.26,.11,1.72,.33,.46,.22,.82,.53,1.09,.93-.14,.16-.28,.34-.41,.56-.13,.22-.24,.44-.33,.66-.09,.22-.17,.42-.22,.61-.06,.19-.08,.35-.08,.46,0,.13,.05,.25,.15,.36,.1,.11,.25,.16,.46,.16,.21-.82,.51-1.51,.89-2.06s.82-1,1.31-1.33c.49-.33,1.02-.57,1.59-.71s1.15-.21,1.74-.21c.48,0,.91,.03,1.31,.09,.4,.06,.76,.14,1.08,.24,.32,.1,.6,.21,.85,.34,.24,.13,.45,.25,.61,.37,.18,.46,.3,.96,.38,1.48,.08,.52,.12,1.03,.12,1.53,0,.9-.08,1.64-.24,2.24-.16,.6-.33,1.09-.52,1.48-.18,.09-.4,.18-.66,.27-.27,.09-.56,.17-.87,.23s-.65,.12-1,.16-.7,.06-1.05,.06c-.37,0-.69-.01-.97-.03-.28-.02-.54-.05-.77-.09-.23-.04-.45-.08-.64-.13-.19-.05-.39-.1-.59-.14-.09,.09-.13,.22-.13,.38,0,.16,.1,.28,.31,.37,.2,.09,.57,.18,1.1,.28v8.34c-.38,.24-.76,.44-1.15,.59s-.77,.27-1.14,.35c-.37,.08-.73,.14-1.06,.17-.34,.03-.65,.04-.94,.04-.62,0-1.2-.06-1.74-.17-.54-.12-1.02-.29-1.42-.53-.4-.24-.72-.54-.96-.91-.23-.37-.35-.8-.35-1.31v-8.55c-.33-.46-.58-.99-.74-1.58-.16-.59-.24-1.2-.24-1.84,0-.53,.08-1.12,.24-1.76,.16-.64,.41-1.21,.74-1.71h2.54Z"/>
      </g>
      <g>
        <g>
          <path class="cls-1" d="M120.38,32.5c-.77,.26-1.52,.39-2.27,.38s-1.46-.16-2.11-.47c-.66-.31-1.25-.77-1.78-1.38-.53-.61-.96-1.4-1.29-2.35-.3-.86-.43-1.69-.4-2.48,.03-.79,.2-1.51,.52-2.17s.77-1.23,1.35-1.72c.58-.49,1.28-.88,2.1-1.16s1.61-.39,2.38-.34c.77,.05,1.48,.25,2.14,.59,.65,.34,1.23,.82,1.74,1.43s.9,1.34,1.19,2.17,.44,1.68,.43,2.46c-.01,.78-.17,1.49-.47,2.14-.3,.65-.75,1.22-1.34,1.71-.59,.49-1.31,.89-2.17,1.18Zm-1.61-3.97c.06,.03,.14,.03,.23,0,.12-.04,.19-.11,.21-.2,.02-.09,0-.22-.06-.39l-.48-1.4c-.1-.29-.19-.54-.27-.74-.08-.2-.16-.36-.24-.48s-.15-.19-.21-.21-.13-.02-.19,0c-.06,.02-.1,.05-.13,.08-.03,.03-.05,.07-.07,.1,.04,.1,.09,.2,.13,.28,.04,.09,.09,.19,.14,.3,.05,.11,.1,.24,.16,.4,.06,.15,.13,.34,.2,.55l.59,1.72Z"/>
          <path class="cls-1" d="M129.2,18.07c-.18,.06-.37,.12-.57,.17s-.39,.1-.57,.14-.35,.08-.51,.1c-.16,.03-.29,.05-.39,.05-.01,.03-.02,.06-.02,.09,0,.03,0,.08,.02,.13,.04,.11,.23,.16,.58,.15,.35-.01,.87-.14,1.58-.38,.41-.14,.75-.27,1.01-.39s.49-.22,.67-.32c.04,.04,.1,.12,.16,.22,.06,.1,.12,.22,.19,.35,.07,.13,.13,.27,.19,.42s.11,.28,.15,.4c.11,.33,.18,.63,.21,.89s.01,.5-.03,.72l-1.82,.62,2.09,6.09c-.17,.22-.36,.41-.56,.58s-.4,.31-.6,.44c-.2,.12-.4,.23-.59,.31-.19,.08-.38,.16-.55,.21-.37,.13-.72,.21-1.07,.25-.34,.04-.66,.03-.95-.03-.29-.06-.54-.17-.75-.34-.21-.17-.37-.4-.47-.7l-1.58-4.6,.3-.1c.17-.06,.28-.13,.34-.22s.07-.18,.04-.28c-.01-.04-.03-.08-.06-.11l-1.63,.56c-.28-.21-.53-.47-.74-.77-.21-.3-.37-.62-.49-.96-.12-.35-.2-.74-.24-1.17-.04-.43-.02-.82,.07-1.18l.85-.29c-.11-.57-.13-1.1-.05-1.59,.07-.49,.23-.94,.48-1.34,.25-.4,.58-.75,.99-1.06,.42-.3,.91-.55,1.48-.75,.45-.15,.88-.26,1.27-.32,.4-.06,.76-.08,1.09-.07,.33,.01,.62,.05,.88,.12s.47,.14,.64,.23c.05,.07,.1,.15,.15,.24s.09,.18,.13,.27c.04,.09,.07,.17,.1,.25l.06,.18c.13,.37,.21,.7,.26,1,.05,.3,.07,.59,.05,.88-.18,.15-.42,.3-.72,.46s-.67,.31-1.08,.45Z"/>
        </g>
        <g>
          <path class="cls-1" d="M101.89,14.14c-.1,.03-.19,.07-.29,.1s-.17,.08-.23,.12c-.06,.05-.11,.1-.14,.16-.03,.06-.03,.13,0,.21l.02,.05s.02,.04,.03,.05c.1-.04,.19-.08,.27-.1l.22-.08c.31-.11,.64-.19,.98-.26s.69-.1,1.03-.1c.34,0,.68,.04,1.01,.12,.33,.08,.64,.21,.92,.39,.29,.18,.54,.41,.78,.71,.23,.29,.42,.65,.57,1.08,.22,.64,.3,1.24,.23,1.8-.07,.56-.26,1.07-.58,1.53-.32,.46-.75,.87-1.3,1.24-.55,.36-1.19,.67-1.92,.92-.68,.23-1.32,.39-1.93,.46-.61,.08-1.15,.07-1.63-.03s-.9-.29-1.24-.56c-.34-.28-.6-.66-.76-1.14-.06-.18-.1-.36-.11-.54-.01-.18,0-.35,.01-.51,.02-.16,.06-.3,.11-.44,.05-.13,.11-.24,.18-.33,.19,.07,.43,.13,.71,.18,.28,.05,.59,.07,.93,.06s.7-.04,1.08-.1,.77-.16,1.17-.3c.19-.06,.3-.13,.33-.2s.04-.14,0-.23c-.02-.05-.04-.1-.08-.14-.07,.03-.12,.05-.15,.06l-.1,.03c-.61,.21-1.2,.34-1.78,.4-.58,.06-1.12,.03-1.62-.1-.5-.13-.94-.36-1.32-.69-.38-.33-.68-.79-.88-1.38-.17-.49-.23-.99-.18-1.5,.05-.51,.21-1,.5-1.47,.29-.47,.7-.91,1.24-1.32,.54-.4,1.21-.75,2.03-1.03,.4-.14,.8-.25,1.18-.33,.39-.08,.76-.14,1.11-.17,.35-.03,.68-.04,1-.03,.31,.01,.59,.05,.83,.09,.11,.11,.21,.27,.31,.47,.1,.21,.18,.4,.25,.59,.15,.43,.21,.8,.18,1.13-.03,.33-.1,.6-.21,.82-.17-.03-.36-.05-.57-.06s-.43,0-.67,.02-.49,.05-.74,.1-.51,.12-.76,.2Z"/>
          <path class="cls-1" d="M110.04,7.77c-.3,.12-.56,.27-.8,.45-.24,.18-.43,.36-.59,.54-.16,.18-.27,.35-.35,.51-.07,.16-.09,.29-.06,.38,.03,.07,.07,.13,.14,.16,.07,.03,.14,.04,.2,.03,.07-.17,.17-.34,.29-.53,.13-.19,.29-.37,.49-.55s.44-.36,.72-.52c.28-.17,.61-.31,.99-.44,.25-.08,.52-.15,.82-.21,.3-.05,.62-.08,.95-.06s.66,.06,.99,.15c.33,.09,.64,.24,.95,.45,.3,.21,.58,.48,.84,.82,.25,.34,.47,.76,.64,1.27,.1,.28,.19,.58,.29,.89,.1,.32,.2,.63,.3,.92,.15,.43,.31,.76,.5,1.01s.44,.41,.75,.48c.02,.05,.05,.11,.07,.18l.06,.16c.15,.44,.22,.85,.19,1.23s-.11,.73-.27,1.04c-.16,.31-.37,.57-.64,.8-.27,.22-.59,.39-.94,.51-.37,.13-.74,.2-1.11,.21-.37,.01-.73-.05-1.06-.2-.34-.14-.64-.38-.92-.7s-.51-.76-.7-1.3c-.1-.29-.18-.57-.25-.84s-.13-.52-.18-.75-.09-.45-.14-.65c-.04-.2-.09-.38-.14-.54-.1-.3-.2-.49-.31-.57-.1-.09-.22-.1-.37-.06-.09,.03-.17,.09-.23,.16l.64,1.47c.03,.2,.07,.39,.11,.59s.09,.38,.13,.55c.05,.17,.09,.33,.13,.46,.04,.14,.08,.25,.11,.34,.17,.48,.35,.86,.55,1.15s.41,.52,.61,.7c-.17,.38-.45,.73-.83,1.04-.38,.32-.84,.57-1.4,.76-.28,.1-.57,.15-.89,.17s-.62-.01-.9-.1c-.29-.08-.55-.22-.78-.42s-.41-.46-.52-.79l-3.71-10.82c.23-.26,.53-.53,.91-.78,.38-.26,.79-.46,1.22-.61,.32-.11,.65-.18,.98-.22,.33-.04,.64-.02,.93,.04,.29,.06,.54,.19,.77,.37,.22,.18,.39,.44,.51,.76l.3,.88Z"/>
          <path class="cls-1" d="M124.52,14.87c-.72,.25-1.44,.37-2.15,.36s-1.38-.15-2-.45c-.62-.29-1.18-.73-1.69-1.31-.5-.58-.91-1.32-1.22-2.22-.28-.82-.41-1.6-.38-2.34,.03-.75,.19-1.43,.49-2.05s.72-1.16,1.28-1.63c.55-.46,1.21-.83,1.99-1.09s1.52-.37,2.25-.33c.73,.05,1.4,.23,2.02,.56,.62,.32,1.17,.77,1.64,1.35s.85,1.26,1.12,2.05,.41,1.59,.4,2.33c-.01,.74-.16,1.41-.45,2.02-.29,.61-.71,1.15-1.27,1.62-.56,.47-1.24,.84-2.05,1.12Zm-1.52-3.76c.06,.03,.13,.03,.22,0,.12-.04,.18-.1,.2-.19,.02-.08,0-.21-.06-.37l-.45-1.33c-.1-.28-.18-.51-.26-.7-.07-.19-.15-.34-.22-.45-.07-.11-.14-.18-.2-.2s-.12-.02-.18,0c-.06,.02-.1,.04-.12,.07-.03,.03-.05,.06-.07,.1,.04,.1,.08,.19,.12,.27s.08,.18,.13,.28c.04,.11,.09,.23,.15,.37s.12,.32,.19,.52l.56,1.62Z"/>
          <path class="cls-1" d="M128.18,1.97c.26-.09,.5-.15,.72-.19,.22-.03,.42-.04,.59-.01-.26,.37-.41,.68-.46,.91-.02,.09-.01,.17,.01,.25,.03,.07,.07,.13,.14,.17s.16,.04,.28,0c.08-.35,.19-.66,.33-.95,.14-.29,.31-.54,.52-.78,.21-.23,.46-.44,.76-.62s.64-.34,1.02-.47c.24-.08,.53-.15,.86-.22,.33-.06,.69-.09,1.08-.07,.39,.02,.79,.09,1.2,.22,.41,.13,.82,.35,1.21,.65s.77,.71,1.12,1.23c.36,.51,.67,1.16,.94,1.95s.41,1.57,.41,2.28-.14,1.35-.41,1.93c-.27,.58-.67,1.09-1.19,1.52-.53,.43-1.17,.78-1.93,1.04-.33,.11-.61,.19-.85,.25-.24,.05-.44,.09-.61,.11-.17,.02-.3,.03-.41,.03-.1,0-.19,0-.24-.01-.03,.05-.04,.11-.01,.18,.03,.09,.09,.16,.18,.2s.22,.06,.38,.05c.17,0,.38-.04,.63-.1s.56-.14,.92-.24l.84,2.47c-.1,.1-.23,.2-.38,.31-.15,.11-.3,.22-.48,.32-.17,.1-.35,.2-.54,.29-.19,.09-.37,.16-.56,.23-.42,.14-.82,.24-1.19,.28-.37,.04-.71,.02-1.01-.07s-.57-.24-.79-.46c-.23-.22-.41-.52-.54-.9l-2.56-7.46c-.27-.2-.51-.44-.71-.74-.2-.3-.36-.62-.49-.98-.05-.15-.09-.31-.13-.48-.04-.17-.06-.36-.07-.54-.01-.19-.01-.38,0-.56,.01-.19,.04-.37,.08-.54l1.32-.45Zm5.61,5.19c.06,.03,.13,.03,.22,0,.12-.04,.18-.1,.2-.19,.02-.08,0-.21-.06-.37l-.32-.95c-.1-.28-.18-.51-.26-.7-.07-.19-.15-.34-.22-.45-.07-.11-.14-.18-.2-.2s-.12-.02-.18,0c-.06,.02-.1,.04-.12,.07-.03,.03-.05,.06-.07,.1,.04,.1,.08,.19,.12,.27s.08,.18,.13,.28c.04,.11,.09,.23,.15,.37s.12,.32,.19,.52l.43,1.24Z"/>
        </g>
      </g>
    </g>
  </g>
</svg>